# xmcd
#
# Track frame offsets:
#	202
#	17949
#	32284
#	53127
#	69226
#	95906
#	113838
#	130368
#	148860
#	168858
#	186115
#	212717
#
# Disc length: 3124 seconds
# Revision: 3
# Processed by: cddbd v1.5.2PL0 Copyright (c) Steve Scherf et al.
# Submitted via: dBpowerAMP V12.0
#
DISCID=a90c320c
DTITLE=Francine Reed - Can't Make it on my Own
DYEAR=1996
DGENRE=Soul
TTITLE0=Love Without Mercy
TTITLE1=You Bug me
TTITLE2=Foolin' With my Respect
TTITLE3=Not by Man Alone
TTITLE4=Why Does Everything Change
TTITLE5=Stop Me, Before I Love Again
TTITLE6=Broken Hearts Row
TTITLE7=River Rising
TTITLE8=Wonderin'
TTITLE9=Been There, Done That
TTITLE10=I Can't Make it on my Own
TTITLE11=Let's Work Together
EXTD=
EXTT0=
EXTT1=
EXTT2=
EXTT3=
EXTT4=
EXTT5=
EXTT6=
EXTT7=
EXTT8=
EXTT9=
EXTT10=
EXTT11=
PLAYORDER=
